<?xml version="1.0" encoding="UTF-8"?><svg xmlns="http://www.w3.org/2000/svg" viewBox="0 0 157.67 43.27"><defs><style>.d{fill:#000;}</style></defs><g id="a"/><g id="b"><g id="c"><g><path class="d" d="M33.13,27.01c-.37,9.17-6.72,16.26-14.91,16.26C8.68,43.27,0,33.92,0,21.88,0,10.88,7.7,0,17.23,0c4.46,0,8.13,2.2,11,6.91,1.96-1.77,3.24-4.16,3.67-6.91h.73V18.58h-.73C29.52,9.53,25.06,.79,17.42,.79c-3.54,0-6.23,1.83-8.13,5.5-1.47,2.87-1.96,9.41-1.96,16.87,0,6.23,.86,12.65,2.69,15.16,1.89,2.57,4.58,4.09,8.13,4.09,8.13,0,13.75-6.78,14.24-15.4h.73Z"/><path class="d" d="M42.17,41.25c2.08,0,3.36-1.16,3.36-3.48V5.07c0-2.38-1.28-3.54-3.36-3.54h-5.19V.79h22.86v.73h-5.13c-2.02,0-3.06,1.16-3.06,3.54V38.08c0,2.02,.86,3.18,2.57,3.18h4.28c7.58,0,13.14-7.15,14.97-15.4h.73l-.49,16.13H36.85v-.73h5.32Z"/><path class="d" d="M114.41,16.01h-.73c-2.14-9.47-6.54-14.48-13.2-14.48h-7.7c-.92,0-1.41,.86-1.41,2.14V20.66h2.2c5.99,0,9.11-3.73,9.35-10.82h.73v22.86h-.86c-.06-6.6-2.02-11.31-8.92-11.31h-2.51v17.66c0,1.41,.61,2.2,1.89,2.2h7.88c7.15,0,11.73-6.36,13.45-14.48h.73l-.37,15.22h-38.38v-.73h5.62c2.02,0,3.06-1.16,3.06-3.48V5.07c0-2.38-.98-3.54-2.99-3.54h-5.68V.79h37.83v15.22Z"/><path class="d" d="M157.67,21.64c0,10.94-8.13,21.64-18.88,21.64-11.73,0-19.01-11.86-19.01-21.64,0-10.94,8.19-21.64,19.01-21.64s18.88,10.82,18.88,21.64Zm-29.58-12.53c-.61,2.51-.92,6.91-.92,12.53s.31,10.08,.98,12.53c1.28,5.19,5.07,8.25,10.57,8.25s9.66-3.36,10.76-8.68c.49-2.69,.79-7.27,.79-12.77s-.37-9.6-.98-11.98c-1.28-4.95-5.2-8.19-10.51-8.19s-9.47,3.24-10.7,8.31Z"/></g></g></g></svg>